<svg xmlns="http://www.w3.org/2000/svg" viewBox="0 0 1283.43 1603.42"><defs><style>.cls-1{fill:#ff5b5b;}.cls-2{fill:#dadada;}.cls-3{fill:#00b0cc;}.cls-4{fill:#fff200;}</style></defs><g id="Layer_2" data-name="Layer 2"><g id="Layer_1-2" data-name="Layer 1"><path class="cls-1" d="M380,439.31A104.59,104.59,0,0,1,275.4,543.89H0V334.72H275.4A104.59,104.59,0,0,1,380,439.31Z"/><path class="cls-2" d="M380,1154.76A104.59,104.59,0,0,1,275.4,1259.34H0V1050.17H275.4A104.59,104.59,0,0,1,380,1154.76Z"/><path class="cls-1" d="M728.67,797A104.59,104.59,0,0,1,624.08,901.62H0V692.44H624.08A104.59,104.59,0,0,1,728.67,797Z"/><path class="cls-3" d="M0,1407.89v195.53H546.62c182-1.73,348.86-75.46,477.62-195.53Z"/><path class="cls-3" d="M1013.72,186.17C886.57,71.76,723.89,1.72,546.62,0H0V186.17Z"/><path class="cls-2" d="M1243.26,543.89H571a104.59,104.59,0,0,1,0-209.17h571.29A830.1,830.1,0,0,1,1243.26,543.89Z"/><path class="cls-3" d="M1283.37,812a851.59,851.59,0,0,1-5.77,89.6H919.66c-57.77,0-104.59-47.2-104.59-105a104.57,104.57,0,0,1,95.85-104.21h365.45A851.61,851.61,0,0,1,1283.37,812Z"/><path class="cls-4" d="M928.4,692.44H910.92c2.88-.25,5.8-.37,8.74-.37S925.52,692.19,928.4,692.44Z"/><path class="cls-1" d="M1246.36,1050.17a829.48,829.48,0,0,1-97.6,209.18H571a104.59,104.59,0,0,1,0-209.18Z"/></g></g></svg>